# xmcd
#
# Track frame offsets: 
#        150
#        14654
#        38597
#        57894
#        71828
#        82113
#        102639
#        121206
#        133411
#        149238
#        167346
#        181148
#        191731
#        204479
#        222083
#
# Disc length: 3159 seconds
#
# Revision: 4
# Processed by: cddbd v1.5.2PL0 Copyright (c) Steve Scherf et al.
# Submitted via: ExactAudioCopy v1.1
#
DISCID=e80c550f
DTITLE=Ray Davies - See My Friends
DYEAR=2010
DGENRE=Rock
TTITLE0=Ray Davies and Bruce Springsteen - Better Things
TTITLE1=Ray Davies and Bon Jovi - Celluloid Heroes
TTITLE2=Ray Davies with Mumford and Sons - This Time Tomorrow
TTITLE3=Ray Davies with Lucinda Williams and The 88 - Long Way From Home
TTITLE4=Ray Davies and Metallica - You Really Got Me
TTITLE5=Ray Davies and Paloma Fith - Lola
TTITLE6=Ray Davies and Jackson Browne - Waterloo Sunset
TTITLE7=Ray Davies with Alex Chilton and The 88 - 'Til The End Of The Da
TTITLE7=y
TTITLE8=Ray Davies and Amy MacDonald - Dead End Street
TTITLE9=Ray Davies and Spoon - See My Friends
TTITLE10=Ray Davies and Black Francis - This Is Where I Belong
TTITLE11=Ray Davies and The 88 - David Watts
TTITLE12=Ray Davies and Gary Lightbody - Tired Of Waiting
TTITLE13=Ray Davies and Billy Corgan - Destroyer
TTITLE14=Ray Davies and Mano Diao - Victoria
EXTD=YEAR: 2010
EXTT0=
EXTT1=
EXTT2=
EXTT3=
EXTT4=
EXTT5=
EXTT6=
EXTT7=
EXTT8=
EXTT9=
EXTT10=
EXTT11=
EXTT12=
EXTT13=
EXTT14=
PLAYORDER=
